<svg width="537" height="146" viewBox="0 0 537 146" fill="none" xmlns="http://www.w3.org/2000/svg">
<g clip-path="url(#clip0_207_331)">
<path d="M259.538 13.5378L253.079 0.188962L121.084 0L120.983 0.39817H120.646L91.0772 110.671H63.4685L93.0305 0H35.2468L0 132.253L6.45933 145.993H127.893L142.711 133.076L153.987 90.4587L154.088 90.9176L166.717 145.993H223.894L210.976 90.0606L250.156 53.375L259.545 13.531L259.538 13.5378ZM159.86 69.484L159.463 69.8551L169.061 34.7285H196.683L159.86 69.484Z" fill="#E00000"/>
<path d="M294.812 50.6485H307.448L309.778 41.5784H300.187L313.813 25.3209H340.256L331.116 60.9739L324.307 66.8115H268.732L265.775 60.5218L280.297 6.27624L286.662 -0.0134888L347.43 0.168724L343.038 16.5139L338.377 20.6441H312.028L316.777 16.0618H304.047L294.812 50.635V50.6485Z" fill="#CBCBCB"/>
<path d="M386.684 41.4029H352.535L349.491 35.1199L358.631 0.00674438H385.074L378.527 25.2399H391.258L397.798 0.00674438H424.147L407.921 60.9874L401.112 66.825H345.537L342.493 60.5353L345.005 50.6553L349.666 46.4374L376.109 46.5251L371.361 50.6553H384.266L386.684 41.4029Z" fill="#CBCBCB"/>
<path d="M534.036 4.25204e-06L536.993 6.19525L520.767 66.906H494.506L508.219 16.0753H495.584L481.958 66.906H455.696L469.409 16.0753H456.861L443.148 66.906H416.886L433.287 6.28299L430.33 -0.00674438H534.036V4.25204e-06Z" fill="#CBCBCB"/>
<path d="M280.176 78.7363L351.916 78.9185L355.149 84.9383L352.111 95.3582L343.779 102.276L347.8 110.178L339.172 139.811L331.723 145.737H265.762L283.503 85.0261L280.169 78.7363H280.176ZM316.83 117.804L303.009 117.986L299.386 129.574H313.301L316.83 117.811V117.804ZM304.875 110.529L323.398 94.8116H309.576L304.875 110.529Z" fill="#CBCBCB"/>
<path d="M391.318 145.73L384.946 120.315L377.598 145.73H348.885L368.485 78.9118L434.54 78.9995L437.773 85.1071L433.071 103.335L413.471 120.132L419.937 145.73H391.318ZM387.694 110.887L406.318 94.8116H392.497L387.694 110.887Z" fill="#CBCBCB"/>
<path d="M436.89 145.825L433.657 139.535L449.728 84.8439L457.178 78.9185H517.939L521.273 85.2083L505.101 139.899L497.651 145.825H436.89ZM465.409 129.662H479.23L489.421 95.0883H475.599L465.409 129.662Z" fill="#CBCBCB"/>
</g>
<defs>
<clipPath id="clip0_207_331">
<rect width="537" height="146" fill="white"/>
</clipPath>
</defs>
</svg>
