<svg width="798" height="217" viewBox="0 0 798 217" fill="none" xmlns="http://www.w3.org/2000/svg">
<g clip-path="url(#clip0_183_834)">
<path d="M385.33 20.4001L375.74 0.620088L179.77 0.340088L179.62 0.930088H179.12L135.22 164.33H94.23L138.12 0.340088H52.33L0 196.31L9.59 216.67H189.88L211.88 197.53L228.62 134.38L228.77 135.06L247.52 216.67H332.41L313.23 133.79L371.4 79.4301L385.34 20.3901L385.33 20.4001ZM237.34 103.3L236.75 103.85L251 51.8001H292.01L237.34 103.3Z" fill="#E00000"/>
<path d="M437.7 75.3901H456.46L459.92 61.9501H445.68L465.91 37.8601H505.17L491.6 90.6901L481.49 99.3401H398.98L394.59 90.0201L416.15 9.64007L425.6 0.320068L515.82 0.590068L509.3 24.8101L502.38 30.9301H463.26L470.31 24.1401H451.41L437.7 75.3701V75.3901Z" fill="#1B1A1A"/>
<path d="M574.1 61.6901H523.4L518.88 52.3801L532.45 0.350098H571.71L561.99 37.7401H580.89L590.6 0.350098H629.72L605.63 90.7101L595.52 99.3601H513.01L508.49 90.0401L512.22 75.4001L519.14 69.1501L558.4 69.2801L551.35 75.4001H570.51L574.1 61.6901Z" fill="#1B1A1A"/>
<path d="M792.87 0.340078L797.26 9.52008L773.17 99.4801H734.18L754.54 24.1601H735.78L715.55 99.4801H676.56L696.92 24.1601H678.29L657.93 99.4801H618.94L643.29 9.65008L638.9 0.330078H792.87V0.340078Z" fill="#1B1A1A"/>
<path d="M415.97 117.01L522.48 117.28L527.28 126.2L522.77 141.64L510.4 151.89L516.37 163.6L503.56 207.51L492.5 216.29H394.57L420.91 126.33L415.96 117.01H415.97ZM470.39 174.9L449.87 175.17L444.49 192.34H465.15L470.39 174.91V174.9ZM452.64 164.12L480.14 140.83H459.62L452.64 164.12Z" fill="#1B1A1A"/>
<path d="M580.98 216.28L571.52 178.62L560.61 216.28H517.98L547.08 117.27L645.15 117.4L649.95 126.45L642.97 153.46L613.87 178.35L623.47 216.28H580.98ZM575.6 164.65L603.25 140.83H582.73L575.6 164.65Z" fill="#1B1A1A"/>
<path d="M648.64 216.42L643.84 207.1L667.7 126.06L678.76 117.28H768.97L773.92 126.6L749.91 207.64L738.85 216.42H648.64ZM690.98 192.47H711.5L726.63 141.24H706.11L690.98 192.47Z" fill="#1B1A1A"/>
</g>
<defs>
<clipPath id="clip0_183_834">
<rect width="797.27" height="216.34" fill="white" transform="translate(0 0.340088)"/>
</clipPath>
</defs>
</svg>
