<?xml version="1.0" encoding="utf-8"?>
<!-- Generator: Adobe Illustrator 27.6.1, SVG Export Plug-In . SVG Version: 6.00 Build 0)  -->
<svg version="1.1" id="Layer_1" xmlns="http://www.w3.org/2000/svg" xmlns:xlink="http://www.w3.org/1999/xlink" x="0px" y="0px"
	 viewBox="0 0 158 144" style="enable-background:new 0 0 158 144;" xml:space="preserve">
<style type="text/css">
	.st0{fill:#E00000;}
	.st1{fill:#FFFFFF;}
</style>
<path class="st0" d="M79,132.5c-2.6,0-5.2-0.9-7.2-2.6l-67.2-56c-2.3-1.9-3.7-4.6-4-7.6c-0.3-3,0.6-5.9,2.5-8.2s4.6-3.7,7.6-4
	c3-0.3,5.9,0.6,8.2,2.5L79,106.8L139,58.4c1.1-0.9,2.5-1.6,3.9-2c1.4-0.4,2.9-0.6,4.4-0.4c1.5,0.2,2.9,0.6,4.2,1.3
	c1.3,0.7,2.4,1.7,3.4,2.8c1,1.2,1.8,2.5,2.3,4c0.5,1.5,0.7,3,0.5,4.6c-0.1,1.5-0.6,3-1.4,4.4c-0.8,1.3-1.8,2.5-3,3.5L86,130.5
	C83.9,132,81.5,132.6,79,132.5z"/>
<path class="st1" d="M79,143.5c-2.6,0-5.2-0.9-7.2-2.6l-67.2-56c-2.3-1.9-3.7-4.6-4-7.6c-0.3-3,0.6-5.9,2.5-8.2
	c1.9-2.3,4.6-3.7,7.6-4s5.9,0.6,8.2,2.5L79,117.8L139,69.4c1.1-0.9,2.5-1.6,3.9-2c1.4-0.4,2.9-0.6,4.4-0.4c1.5,0.2,2.9,0.6,4.2,1.3
	c1.3,0.7,2.4,1.7,3.4,2.8c1,1.2,1.8,2.5,2.3,4c0.5,1.5,0.7,3,0.5,4.6c-0.1,1.5-0.6,3-1.4,4.4c-0.8,1.3-1.8,2.5-3,3.5L86,141.5
	C83.9,143,81.5,143.6,79,143.5z"/>
<path class="st0" d="M79,78.5c-2.6,0-5.2-0.9-7.2-2.6l-67.2-56c-2.3-1.9-3.7-4.6-4-7.6C0.3,9.3,1.2,6.3,3.1,4s4.6-3.7,7.6-4
	c3-0.3,5.9,0.6,8.2,2.5L79,52.8L139,4.4c1.1-0.9,2.5-1.6,3.9-2c1.4-0.4,2.9-0.6,4.4-0.4c1.5,0.2,2.9,0.6,4.2,1.3
	c1.3,0.7,2.4,1.7,3.4,2.8c1,1.2,1.8,2.5,2.3,4c0.5,1.5,0.7,3,0.5,4.6c-0.1,1.5-0.6,3-1.4,4.4c-0.8,1.3-1.8,2.5-3,3.5L86,76.5
	C83.9,78,81.5,78.6,79,78.5z"/>
<path class="st1" d="M79,89.5c-2.6,0-5.2-0.9-7.2-2.6l-67.2-56c-2.3-1.9-3.7-4.6-4-7.6s0.6-5.9,2.5-8.2s4.6-3.7,7.6-4
	c3-0.3,5.9,0.6,8.2,2.5L79,63.8L139,15.4c1.1-0.9,2.5-1.6,3.9-2c1.4-0.4,2.9-0.6,4.4-0.4c1.5,0.2,2.9,0.6,4.2,1.3
	c1.3,0.7,2.4,1.7,3.4,2.8c1,1.2,1.8,2.5,2.3,4c0.5,1.5,0.7,3,0.5,4.6c-0.1,1.5-0.6,3-1.4,4.4c-0.8,1.3-1.8,2.5-3,3.5L86,87.5
	C83.9,89,81.5,89.6,79,89.5z"/>
</svg>
