<svg width="331" height="89" viewBox="0 0 331 89" fill="none" xmlns="http://www.w3.org/2000/svg">
<g clip-path="url(#clip0_263_154)">
<path d="M159.993 8.25247L156.023 0.115189L74.909 0L74.847 0.24272H74.64L56.4692 67.4638H39.503L57.6696 0H22.16L0.5 80.62L4.46942 88.9959H79.0937L88.1998 81.1219L95.1287 55.1426L95.1908 55.4224L102.952 88.9959H138.089L130.15 54.8999L154.227 32.5368L159.997 8.24836L159.993 8.25247ZM98.738 42.3567L98.4938 42.5829L104.392 21.1701H121.367L98.738 42.3567Z" fill="#CBCBCB"/>
<path d="M181.669 30.8748H189.434L190.867 25.3458H184.973L193.346 15.4354H209.596L203.979 37.1691L199.795 40.7276H165.643L163.826 36.8935L172.75 3.82597L176.661 -0.00817871L214.004 0.102896L211.306 10.0667L208.441 12.5845H192.249L195.167 9.79112H187.344L181.669 30.8666V30.8748Z" fill="#CBCBCB"/>
<path d="M238.127 25.2388H217.142L215.271 21.4087L220.888 0.00415039H237.138L233.115 15.386H240.938L244.957 0.00415039H261.149L251.178 37.1773L246.993 40.7358H212.841L210.97 36.9017L212.514 30.8789L215.379 28.3077L231.629 28.3612L228.711 30.8789H236.641L238.127 25.2388Z" fill="#CBCBCB"/>
<path d="M328.679 8.55741e-05L330.496 3.77664L320.525 40.7852H304.386L312.813 9.79938H305.049L296.675 40.7852H280.537L288.964 9.79938H281.253L272.825 40.7852H256.687L266.766 3.83012L264.949 -0.00402832H328.679V8.55741e-05Z" fill="#CBCBCB"/>
<path d="M172.675 47.9968L216.761 48.1079L218.748 51.7775L216.881 58.1294L211.761 62.3461L214.232 67.1635L208.93 85.2276L204.352 88.8396H163.817L174.72 51.831L172.671 47.9968H172.675ZM195.2 71.8122L186.707 71.9232L184.48 78.9868H193.031L195.2 71.8163V71.8122ZM187.853 67.3774L199.236 57.7961H190.742L187.853 67.3774Z" fill="#CBCBCB"/>
<path d="M240.975 88.8354L237.059 73.3425L232.543 88.8354H214.898L226.943 48.1038L267.536 48.1572L269.522 51.8803L266.633 62.9919L254.588 73.2314L258.562 88.8354H240.975ZM238.748 67.5954L250.193 57.7961H241.699L238.748 67.5954Z" fill="#CBCBCB"/>
<path d="M268.98 88.8931L266.993 85.0589L276.869 51.7199L281.447 48.1079H318.786L320.835 51.9421L310.897 85.2811L306.319 88.8931H268.98ZM286.505 79.0403H294.999L301.261 57.9648H292.768L286.505 79.0403Z" fill="#CBCBCB"/>
</g>
<defs>
<clipPath id="clip0_263_154">
<rect width="330" height="89" fill="white" transform="translate(0.5)"/>
</clipPath>
</defs>
</svg>
