<svg width="52" height="50" viewBox="0 0 52 50" fill="none" xmlns="http://www.w3.org/2000/svg">
<path d="M26.0996 0.0323486C11.9632 0.0323486 0.5 11.4935 0.5 25.632C0.5 36.9428 7.83506 46.5385 18.0066 49.9236C19.286 50.1605 19.7558 49.3682 19.7558 48.692C19.7558 48.0817 19.7319 46.0649 19.7211 43.9259C12.599 45.4744 11.0962 40.9054 11.0962 40.9054C9.93174 37.9464 8.25387 37.1598 8.25387 37.1598C5.93133 35.5709 8.42895 35.6034 8.42895 35.6034C10.9997 35.7841 12.3533 38.2416 12.3533 38.2416C14.6365 42.1552 18.3419 41.0237 19.8028 40.3698C20.0325 38.715 20.696 37.5858 21.428 36.9466C15.7421 36.2991 9.7647 34.104 9.7647 24.295C9.7647 21.5003 10.7647 19.2165 12.4025 17.4238C12.1366 16.7789 11.2605 14.1752 12.6504 10.6491C12.6504 10.6491 14.8001 9.961 19.6921 13.2732C21.734 12.7058 23.924 12.4215 26.0996 12.4118C28.2752 12.4215 30.4669 12.7058 32.5127 13.2732C37.399 9.961 39.5456 10.6491 39.5456 10.6491C40.939 14.1752 40.0624 16.7789 39.7966 17.4238C41.4379 19.2165 42.4312 21.5001 42.4312 24.295C42.4312 34.1273 36.4425 36.2925 30.7421 36.9261C31.6603 37.7206 32.4784 39.2786 32.4784 41.6668C32.4784 45.092 32.4487 47.8488 32.4487 48.692C32.4487 49.3733 32.9095 50.1715 34.2073 49.9202C44.3732 46.5313 51.6991 36.9389 51.6991 25.632C51.6991 11.4935 40.2375 0.0323486 26.0996 0.0323486Z" fill="#161614"/>
</svg>
