<svg xmlns="http://www.w3.org/2000/svg" xmlns:xlink="http://www.w3.org/1999/xlink" viewBox="0,0,256,256" width="64px" height="64px"><g fill="#ec0a0a" fill-rule="nonzero" stroke="none" stroke-width="1" stroke-linecap="butt" stroke-linejoin="miter" stroke-miterlimit="10" stroke-dasharray="" stroke-dashoffset="0" font-family="none" font-weight="none" font-size="none" text-anchor="none" style="mix-blend-mode: normal"><g transform="scale(4,4)"><path d="M22,51c-1,-1 -4,-1 -4,-1l-0.425,-1.274c-0.362,-1.086 -1.215,-1.939 -2.301,-2.301l-1.274,-0.425c0,0 0.5,-2.5 -1,-4l25,-25l8,10zM52,21l-9,-9l4.68,-4.68c0,0 3.5,-1.5 7,2c3.5,3.5 2,7 2,7zM9,50l-1.843,4.476c-0.614,1.49 0.877,2.981 2.367,2.367l4.476,-1.843z"></path></g></g></svg>