<svg width="51" height="50" viewBox="0 0 51 50" fill="none" xmlns="http://www.w3.org/2000/svg">
<path d="M45.9771 0H5.02291C2.525 0 0.5 2.025 0.5 4.52291V45.477C0.5 47.975 2.525 50 5.02291 50H45.977C48.475 50 50.5 47.975 50.5 45.477V4.52291C50.5 2.025 48.475 0 45.9771 0ZM15.9721 43.1733C15.9721 43.9003 15.3829 44.4895 14.6559 44.4895H9.05301C8.32605 44.4895 7.73678 43.9003 7.73678 43.1733V19.6863C7.73678 18.9593 8.32605 18.37 9.05301 18.37H14.6559C15.3829 18.37 15.9721 18.9593 15.9721 19.6863V43.1733ZM11.8545 16.156C8.91479 16.156 6.53168 13.7729 6.53168 10.8332C6.53168 7.89359 8.91479 5.51047 11.8545 5.51047C14.7941 5.51047 17.1772 7.89359 17.1772 10.8332C17.1772 13.7729 14.7942 16.156 11.8545 16.156ZM45.2526 43.2793C45.2526 43.9476 44.7107 44.4895 44.0424 44.4895H38.0301C37.3618 44.4895 36.8199 43.9476 36.8199 43.2793V32.2626C36.8199 30.6191 37.302 25.0609 32.525 25.0609C28.8196 25.0609 28.0681 28.8653 27.9171 30.5726V43.2793C27.9171 43.9476 27.3754 44.4895 26.7069 44.4895H20.892C20.2237 44.4895 19.6818 43.9476 19.6818 43.2793V19.5802C19.6818 18.9119 20.2237 18.37 20.892 18.37H26.7069C27.3753 18.37 27.9171 18.9119 27.9171 19.5802V21.6293C29.2911 19.5674 31.333 17.9759 35.6805 17.9759C45.3077 17.9759 45.2526 26.9702 45.2526 31.912V43.2793Z" fill="#1B1A1A"/>
</svg>
