<svg width="152" height="41" viewBox="0 0 152 41" fill="none" xmlns="http://www.w3.org/2000/svg">
<g id="Logo" clip-path="url(#clip0_208_141)">
<path id="Vector" d="M73.4634 3.8017L71.6351 0.0530646L34.2733 0L34.2447 0.111815H34.1493L25.7798 31.0788H17.965L26.3327 0H9.97675L0 37.1395L1.82834 40.9981H36.2007L40.3951 37.3708L43.5865 25.4028L43.6151 25.5317L47.1898 40.9981H63.3742L59.7175 25.291L70.8076 14.9889L73.4653 3.79981L73.4634 3.8017ZM45.249 19.5126L45.1365 19.6169L47.8533 9.75252H55.6719L45.249 19.5126Z" fill="#E00000"/>
<g id="Group">
<path id="Vector_2" d="M83.4478 14.2232H87.0244L87.684 11.6761H84.9692L88.826 7.11067H96.311L93.7238 17.1228L91.7964 18.7621H76.0658L75.2288 16.9958L79.3392 1.76251L81.1409 -0.00378418L98.3414 0.0473853L97.0984 4.63748L95.7791 5.79732H88.3208L89.6649 4.5105H86.0616L83.4478 14.2194V14.2232Z" fill="#1B1A1A"/>
<path id="Vector_3" d="M109.452 11.6268H99.7865L98.9248 9.86244L101.512 0.00189209H108.997L107.144 7.08791H110.747L112.598 0.00189209H120.056L115.464 17.1266L113.536 18.7659H97.8057L96.9439 16.9996L97.655 14.2251L98.9743 13.0406L106.459 13.0653L105.115 14.2251H108.768L109.452 11.6268Z" fill="#1B1A1A"/>
<path id="Vector_4" d="M151.161 3.07511e-06L151.998 1.73976L147.405 18.7887H139.972L143.854 4.51429H140.277L136.42 18.7887H128.987L132.868 4.51429H129.316L125.435 18.7887H118.001L122.644 1.7644L121.807 -0.00189209H151.161V3.07511e-06Z" fill="#1B1A1A"/>
</g>
<g id="Group_2">
<path id="Vector_5" d="M79.3049 22.1109L99.6111 22.1621L100.526 23.8526L99.6664 26.7787L97.3081 28.7212L98.4462 30.9405L96.004 39.2621L93.8954 40.9261H75.225L80.2467 23.8772L79.303 22.1109H79.3049ZM89.6801 33.082L85.768 33.1332L84.7423 36.3872H88.6811L89.6801 33.0839V33.082ZM86.2961 31.039L91.539 26.6252H87.6268L86.2961 31.039Z" fill="#1B1A1A"/>
<path id="Vector_6" d="M110.764 40.9242L108.961 33.787L106.881 40.9242H98.7532L104.301 22.1602L122.998 22.1848L123.913 23.8999L122.583 29.0188L117.035 33.7359L118.865 40.9242H110.764ZM109.738 31.1395L115.01 26.6252H111.098L109.738 31.1395Z" fill="#1B1A1A"/>
<path id="Vector_7" d="M123.664 40.9507L122.748 39.1845L127.297 23.826L129.406 22.1621H146.605L147.548 23.9284L142.971 39.2868L140.862 40.9507H123.664ZM131.736 36.4118H135.648L138.532 26.7029H134.62L131.736 36.4118Z" fill="#1B1A1A"/>
</g>
</g>
<defs>
<clipPath id="clip0_208_141">
<rect width="152" height="41" fill="white"/>
</clipPath>
</defs>
</svg>
