<svg width="52" height="53" viewBox="0 0 52 53" fill="none" xmlns="http://www.w3.org/2000/svg">
<g id="&#240;&#159;&#166;&#134; icon &#34;instagram&#34;">
<g id="Group">
<path id="Vector" d="M18.5 51.5H33.5C46 51.5 51 46.5 51 34V19C51 6.5 46 1.5 33.5 1.5H18.5C6 1.5 1 6.5 1 19V34C1 46.5 6 51.5 18.5 51.5Z" stroke="#CBCBCB" stroke-width="2.01416" stroke-linecap="round" stroke-linejoin="round"/>
<path id="Vector_2" d="M26 35.25C30.8325 35.25 34.75 31.3325 34.75 26.5C34.75 21.6675 30.8325 17.75 26 17.75C21.1675 17.75 17.25 21.6675 17.25 26.5C17.25 31.3325 21.1675 35.25 26 35.25Z" stroke="#CBCBCB" stroke-width="2.01416" stroke-linecap="round" stroke-linejoin="round"/>
<path id="Vector_3" d="M40.0903 14H40.1193" stroke="#CBCBCB" stroke-width="2.68554" stroke-linecap="round" stroke-linejoin="round"/>
</g>
</g>
</svg>
