<svg width="52" height="53" viewBox="0 0 52 53" fill="none" xmlns="http://www.w3.org/2000/svg">
<g id="&#240;&#159;&#166;&#134; icon &#34;facebook&#34;">
<g id="Group">
<path id="Vector" d="M31 19.75V27H37.5C38 27 38.25 27.5 38.25 28L37.25 32.75C37.25 33 36.75 33.25 36.5 33.25H31V51.5H23.5V33.5H19.25C18.75 33.5 18.5 33.25 18.5 32.75V28C18.5 27.5 18.75 27.25 19.25 27.25H23.5V19C23.5 14.75 26.75 11.5 31 11.5H37.75C38.25 11.5 38.5 11.75 38.5 12.25V18.25C38.5 18.75 38.25 19 37.75 19H31.75C31.25 19 31 19.25 31 19.75Z" stroke="#CBCBCB" stroke-width="2.01416" stroke-miterlimit="10" stroke-linecap="round"/>
<path id="Vector_2" d="M33.5 51.5H18.5C6 51.5 1 46.5 1 34V19C1 6.5 6 1.5 18.5 1.5H33.5C46 1.5 51 6.5 51 19V34C51 46.5 46 51.5 33.5 51.5Z" stroke="#CBCBCB" stroke-width="2.01416" stroke-linecap="round" stroke-linejoin="round"/>
</g>
</g>
</svg>
